<?xml version="1.0" encoding="utf-8"?>
<!-- Generator: Adobe Illustrator 26.3.1, SVG Export Plug-In . SVG Version: 6.00 Build 0)  -->
<svg version="1.1" id="Layer_1" xmlns="http://www.w3.org/2000/svg" xmlns:xlink="http://www.w3.org/1999/xlink" x="0px" y="0px"
	 viewBox="0 0 288 288" style="enable-background:new 0 0 288 288;" xml:space="preserve">
<path d="M144,1.8C65.5,1.8,1.8,65.5,1.8,144S65.5,286.2,144,286.2S286.2,222.5,286.2,144S222.5,1.8,144,1.8z M228.2,233.9
	c-0.6-6.3-1.9-15.7-4.7-20.9c0,0-1-2.6-3.9-6.9c-2.9-4.3-7.3-7.9-7.3-7.9s-7.1-5.2-11.5-6.9c-4.4-1.7-8.1-3-9.8-3.5
	c-1.7-0.5-13.5-3.4-20.7-3.9c-7.1-0.5-12.9-1.9-42.4-0.9c-29.5,1-41.1,8.1-46.6,10.7c-5.5,2.6-11.3,9.1-13.5,12.3
	c-2.2,3.1-5.4,10.5-6.7,17.2c-0.6,3.3-1,7.3-1.2,10.7c-23.9-22.5-38.8-54.3-38.8-89.7C20.9,76,76,20.9,144,20.9S267.1,76,267.1,144
	C267.1,179.4,252.1,211.4,228.2,233.9z M181.6,128.5c0,20.7-16.8,37.6-37.6,37.6s-37.6-16.8-37.6-37.6c0-20.7,16.8-37.6,37.6-37.6
	S181.6,107.7,181.6,128.5z"/>
</svg>
